<?xml version="1.0" encoding="iso-8859-1"?>
<!-- Generator: Adobe Illustrator 18.0.0, SVG Export Plug-In . SVG Version: 6.00 Build 0)  -->
<!DOCTYPE svg PUBLIC "-//W3C//DTD SVG 1.1//EN" "http://www.w3.org/Graphics/SVG/1.1/DTD/svg11.dtd">
<svg version="1.1" id="Capa_1" xmlns="http://www.w3.org/2000/svg" xmlns:xlink="http://www.w3.org/1999/xlink" x="0px" y="0px"
	 viewBox="0 0 179.711 179.711" style="enable-background:new 0 0 179.711 179.711;" xml:space="preserve">
<g>
	<rect x="0.612" y="0" style="fill:#F4A247;" width="178.488" height="178.488"/>
	<g>
		<path style="fill-rule:evenodd;clip-rule:evenodd;fill:#8F664D;" d="M76.218,41.485c3.495-5.794,31.362-10.903,42.73,9.694
			c11.369,20.598,5.643,27.813,11.913,35.083c6.273,7.27,0.366,23.955-3.991,25.416c-4.357,1.463-2.608,7.232-0.482,9.712
			c9.071,10.582-4.047,28.421-39.07,28.239c-37.437-0.196-44.782-20.942-35.183-27.414c3.129-2.111,4.342-6.164,0.914-9.735
			c-3.428-3.571-11.332-16.875-3.885-27.78C56.615,73.797,50.106,41.469,76.218,41.485z"/>
		<path style="fill-rule:evenodd;clip-rule:evenodd;fill:#51BFD2;" d="M102.04,126.281c-0.263,0.413-26.086,0.824-26.372,1.231
			c-8.109,11.57-25.633,16.639-39.567,19.755c-13.865,3.1-14.401,20.713-14.423,32.444h135.177
			c-0.021-11.73-0.278-29.281-14.425-32.444C128.282,144.104,109.734,138.378,102.04,126.281z"/>
		<path style="fill-rule:evenodd;clip-rule:evenodd;fill:#FFE7DE;" d="M75.723,101.573v22.216v10.964
			c6.786,13.883,18.969,14.244,27.087,0v-10.965v-22.215C102.81,83.657,75.723,83.657,75.723,101.573z"/>
		
			<ellipse transform="matrix(0.3947 -0.9188 0.9188 0.3947 -12.8666 170.3912)" style="fill-rule:evenodd;clip-rule:evenodd;fill:#FFE7DE;" cx="122.881" cy="94.96" rx="9.665" ry="5.59"/>
		<path style="fill-rule:evenodd;clip-rule:evenodd;fill:#FFE7DE;" d="M89.267,124.524c-8.818,0-27.446-13.863-33.205-33.717
			C50.247,70.757,61.198,42,89.267,42c28.067,0,39.021,28.757,33.204,48.806C116.71,110.661,98.084,124.524,89.267,124.524z"/>
		<path style="fill-rule:evenodd;clip-rule:evenodd;fill:#8F664D;" d="M82.66,66.863c-6.887,13.773-9.682,17.839-18.839,14.203
			c-9.156-3.635-8.417,6.555-6.753,13.826c-8.109-9.819-6.156-19.145-3.634-28.626c2.764-10.39,16.706-26.197,29.783-25.906
			c7.105-0.713,17.859,0.13,29.301,7.992c19.976,13.732,13.305,44.586,7.923,48.225c5.212-28.578-7.549-22.76-16.356-37.708
			C101.192,52.296,90.147,51.891,82.66,66.863z"/>
		<rect x="87.877" y="145.445" style="fill-rule:evenodd;clip-rule:evenodd;fill:#E6D7D7;" width="2.777" height="34.267"/>
		<g>
			
				<polygon style="fill-rule:evenodd;clip-rule:evenodd;fill:#E6D7D7;stroke:#51BFD2;stroke-width:1.3211;stroke-miterlimit:10;" points="
				75.724,127.486 66.057,136.322 78.35,155.399 88.959,145.333 			"/>
			
				<polygon style="fill-rule:evenodd;clip-rule:evenodd;fill:#E6D7D7;stroke:#51BFD2;stroke-width:1.3211;stroke-miterlimit:10;" points="
				102.81,127.421 112.475,136.631 99.567,155.399 88.959,145.333 			"/>
		</g>
	</g>
</g>
<g>
</g>
<g>
</g>
<g>
</g>
<g>
</g>
<g>
</g>
<g>
</g>
<g>
</g>
<g>
</g>
<g>
</g>
<g>
</g>
<g>
</g>
<g>
</g>
<g>
</g>
<g>
</g>
<g>
</g>
</svg>
